#!OML:ASF I:\golf\golf\golf 2\Subject 1\2002-09-07\Subject1.ASF
:FULLY-SPECIFIED
:DEGREES
349
root 1.94147 10.3496 -3.40681 13.8671 -4.77949 -5.22105
lowerback 41.5431 8.99536 3.53807
upperback 15.737 12.3276 6.80615
thorax -2.85141 5.6426 0.875624
lowerneck -7.47491 -7.27512 1.10219
upperneck 23.6125 -7.90395 -9.23721
head 8.06867 -4.35811 -3.93196
rclavicle -2.8625e-014 -1.11319e-014
rhumerus 24.07 -2.99751 -75.1496
rradius 38.2394
rwrist -11.7165
rhand -44.4634 21.5383
rfingers 7.12502
rthumb -17.2673 -7.71454
lclavicle -2.8625e-014 -1.11319e-014
lhumerus -28.162 -48.3261 92.471
lradius 104.443
lwrist -13.6047
lhand -43.1269 10.4574
lfingers 7.12502
lthumb -15.9806 39.8182
rfemur -90.2114 -58.969 38.1373
rtibia 137.526
rfoot -28.207 14.6057
rtoes -11.1338
lfemur -99.211 16.6888 -24.5203
ltibia 127.503
lfoot -27.9299 -12.5485
ltoes -13.5757
350
root 1.94128 10.3531 -3.39979 13.9927 -4.65396 -5.22043
lowerback 41.4763 8.96184 3.618
upperback 15.6908 12.3202 6.78778
thorax -2.8647 5.64448 0.823149
lowerneck -7.33505 -7.2988 1.09833
upperneck 23.5477 -7.94531 -9.20303
head 8.02075 -4.37158 -3.91276
rclavicle -6.67916e-014 1.59028e-014
rhumerus 24.1914 -3.07912 -75.1177
rradius 37.9511
rwrist -11.5699
rhand -44.677 20.9033
rfingers 7.12502
rthumb -17.4728 -8.33148
lclavicle -6.67916e-014 1.59028e-014
lhumerus -28.178 -48.4517 92.513
lradius 104.486
lwrist -13.4469
lhand -42.8188 10.2536
lfingers 7.12502
lthumb -15.6839 39.6379
rfemur -90.3856 -58.8918 38.2801
rtibia 137.508
rfoot -28.1977 14.5193
rtoes -11.3634
lfemur -99.256 16.5087 -24.5366
ltibia 127.431
lfoot -28.0001 -12.2949
ltoes -13.8482
351
root 1.94235 10.3556 -3.39436 14.1673 -4.53375 -5.17865
lowerback 41.3011 8.92532 3.65451
upperback 15.6676 12.2881 6.7579
thorax -2.82629 5.63709 0.799434
lowerneck -7.24338 -7.31086 1.05299
upperneck 23.5808 -7.95846 -9.16536
head 8.01861 -4.37539 -3.89097
rclavicle -2.22639e-014 5.725e-014
rhumerus 24.278 -3.09788 -75.0889
rradius 37.6916
rwrist -11.55
rhand -44.7766 20.4426
rfingers 7.12502
rthumb -17.5686 -8.78361
lclavicle -2.22639e-014 5.725e-014
lhumerus -28.114 -48.5845 92.4957
lradius 104.389
lwrist -13.6338
lhand -42.8891 10.3618
lfingers 7.12502
lthumb -15.7515 39.7408
rfemur -90.7296 -58.843 38.5091
rtibia 137.499
rfoot -28.1681 14.5069
rtoes -11.5473
lfemur -99.4072 16.2868 -24.6161
ltibia 127.4
lfoot -27.9977 -12.2204
ltoes -13.4568
352
root 1.94339 10.3543 -3.39696 14.4508 -4.44235 -5.12739
lowerback 41.0389 8.90918 3.658
upperback 15.6263 12.2662 6.71691
thorax -2.78612 5.63487 0.781209
lowerneck -7.19004 -7.31879 1.06926
upperneck 23.6223 -7.96445 -9.18117
head 8.02068 -4.37654 -3.89837
rclavicle -4.13472e-014 8.5875e-014
rhumerus 24.4462 -3.14664 -75.0507
rradius 37.3348
rwrist -11.6139
rhand -44.7982 20.1814
rfingers 7.12502
rthumb -17.5895 -9.04289
lclavicle -4.13472e-014 8.5875e-014
lhumerus -28.1359 -48.6705 92.5215
lradius 104.383
lwrist -13.8365
lhand -43.139 10.7236
lfingers 7.12502
lthumb -15.9922 40.0835
rfemur -91.4231 -58.598 38.9448
rtibia 137.529
rfoot -28.0387 14.4247
rtoes -11.9658
lfemur -99.7859 15.9777 -24.7529
ltibia 127.345
lfoot -27.766 -12.244
ltoes -12.2421
353
root 1.94603 10.3507 -3.40482 14.8066 -4.29843 -5.15899
lowerback 40.8163 8.82047 3.80674
upperback 15.536 12.2124 6.65403
thorax -2.77917 5.62154 0.676785
lowerneck -7.12469 -7.31476 1.13491
upperneck 23.5895 -7.95822 -9.23857
head 7.99159 -4.37213 -3.92223
rclavicle -5.40694e-014 1.08139e-013
rhumerus 24.7438 -3.36015 -75.1692
rradius 36.8373
rwrist -11.5582
rhand -44.7971 19.9729
rfingers 7.12502
rthumb -17.5884 -9.25154
lclavicle -5.40694e-014 1.08139e-013
lhumerus -28.1506 -48.7317 92.5038
lradius 104.426
lwrist -13.7134
lhand -43.175 10.856
lfingers 7.12502
lthumb -16.0269 40.2131
rfemur -92.2805 -58.1224 39.5729
rtibia 137.553
rfoot -27.8016 14.1999
rtoes -12.307
lfemur -100.333 15.5964 -24.8173
ltibia 127.276
lfoot -27.3403 -12.3494
ltoes -10.3926
354
root 1.94201 10.3617 -3.40367 14.9166 -4.20689 -5.255
lowerback 40.8501 8.78014 3.90422
upperback 15.4873 12.2032 6.64041
thorax -2.82188 5.61887 0.613209
lowerneck -7.06673 -7.32551 1.13952
upperneck 23.5506 -7.97161 -9.25491
head 7.96608 -4.37827 -3.92438
rclavicle 9.85972e-014 -2.8625e-014
rhumerus 25.0425 -3.44931 -75.2705
rradius 36.349
rwrist -11.7893
rhand -44.97 20.2292
rfingers 7.12502
rthumb -17.7548 -8.98027
lclavicle 9.85972e-014 -2.8625e-014
lhumerus -28.1994 -48.7482 92.4841
lradius 104.454
lwrist -13.4953
lhand -43.1114 10.8335
lfingers 7.12502
lthumb -15.9656 40.1956
rfemur -92.2438 -57.7726 39.732
rtibia 137.442
rfoot -27.7614 13.9799
rtoes -12.3846
lfemur -100.364 15.5397 -24.7238
ltibia 127.14
lfoot -27.2566 -12.3996
ltoes -9.33473
355
root 1.93431 10.3807 -3.39603 14.9167 -4.19766 -5.22458
lowerback 40.9433 8.81738 3.78716
upperback 15.4795 12.208 6.62744
thorax -2.87628 5.61389 0.644133
lowerneck -7.07629 -7.32962 1.11947
upperneck 23.5302 -7.97432 -9.25764
head 7.96181 -4.38161 -3.92176
rclavicle 3.18055e-014 -3.33958e-014
rhumerus 25.3435 -3.45984 -75.367
rradius 35.8796
rwrist -12.1334
rhand -45.2833 20.828
rfingers 7.12502
rthumb -18.0562 -8.35393
lclavicle 3.18055e-014 -3.33958e-014
lhumerus -28.3286 -48.6805 92.5358
lradius 104.414
lwrist -13.691
lhand -43.3702 10.7143
lfingers 7.12502
lthumb -16.2148 40.0562
rfemur -91.9263 -57.6501 39.5825
rtibia 137.296
rfoot -27.8228 13.8957
rtoes -12.4494
lfemur -100.088 15.55 -24.7033
ltibia 126.936
lfoot -27.4986 -12.1075
ltoes -9.87842
356
root 1.9313 10.3925 -3.3962 15.0905 -4.15552 -5.16397
lowerback 40.8774 8.80914 3.73507
upperback 15.4468 12.1766 6.57073
thorax -2.88943 5.60018 0.624309
lowerneck -7.01707 -7.31551 1.01033
upperneck 23.4082 -7.97475 -9.1154
head 7.92333 -4.37703 -3.84905
rclavicle -3.18055e-014 -3.18055e-015
rhumerus 25.7491 -3.85868 -75.7744
rradius 35.2609
rwrist -11.746
rhand -45.5396 21.2604
rfingers 7.12502
rthumb -18.3028 -7.89848
lclavicle -3.18055e-014 -3.18055e-015
lhumerus -28.3261 -48.684 92.5644
lradius 104.237
lwrist -14.1323
lhand -43.762 10.6051
lfingers 7.12502
lthumb -16.5921 39.9158
rfemur -92.2272 -57.3669 39.7709
rtibia 137.213
rfoot -27.6558 13.8028
rtoes -12.5176
lfemur -100.121 15.3243 -24.7433
ltibia 126.724
lfoot -27.6624 -11.6695
ltoes -10.9051
357
root 1.92875 10.4061 -3.39745 15.2629 -4.07464 -5.17997
lowerback 40.7923 8.76769 3.79333
upperback 15.4165 12.1456 6.53101
thorax -2.8781 5.59106 0.572114
lowerneck -6.83498 -7.30773 0.856259
upperneck 23.2563 -7.98312 -8.94719
head 7.85579 -4.37492 -3.75386
rclavicle -2.54444e-014 3.33958e-014
rhumerus 26.1042 -4.42766 -76.2765
rradius 34.7581
rwrist -10.978
rhand -45.6633 21.0735
rfingers 7.12502
rthumb -18.4218 -8.07423
lclavicle -2.54444e-014 3.33958e-014
lhumerus -28.2371 -48.7755 92.5306
lradius 104.082
lwrist -14.0275
lhand -43.8286 10.5498
lfingers 7.12502
lthumb -16.6562 39.8551
rfemur -92.4157 -57.0089 39.9588
rtibia 137.104
rfoot -27.4783 13.7327
rtoes -12.395
lfemur -100.157 15.1389 -24.7301
ltibia 126.506
lfoot -27.7333 -11.4357
ltoes -11.0642
358
root 1.92455 10.4241 -3.3953 15.421 -3.9803 -5.17175
lowerback 40.623 8.75131 3.83914
upperback 15.4071 12.1381 6.50385
thorax -2.824 5.59559 0.539029
lowerneck -6.58038 -7.33511 0.866622
upperneck 23.1428 -8.02848 -8.93866
head 7.76898 -4.38924 -3.73769
rclavicle -2.22639e-014 7.95139e-015
rhumerus 26.2201 -4.60891 -76.3678
rradius 34.5786
rwrist -10.8708
rhand -45.8155 20.2798
rfingers 7.12502
rthumb -18.5682 -8.85401
lclavicle -2.22639e-014 7.95139e-015
lhumerus -28.2177 -48.9322 92.5045
lradius 104.164
lwrist -13.3647
lhand -43.3765 10.2699
lfingers 7.12502
lthumb -16.2209 39.6113
rfemur -92.4676 -56.7367 40.0493
rtibia 136.967
rfoot -27.4207 13.6675
rtoes -12.2866
lfemur -100.121 14.9759 -24.7226
ltibia 126.299
lfoot -27.7405 -11.3766
ltoes -10.5119
359
root 1.91969 10.4417 -3.39418 15.6239 -3.89666 -5.11006
lowerback 40.4097 8.75473 3.84625
upperback 15.3965 12.138 6.45704
thorax -2.76046 5.60431 0.5051
lowerneck -6.31264 -7.37155 0.890145
upperneck 22.9788 -8.10407 -8.86735
head 7.66404 -4.41102 -3.7023
rclavicle 2.54444e-014 1.43125e-014
rhumerus 26.2221 -4.57522 -76.2661
rradius 34.5422
rwrist -11.0545
rhand -46.1045 19.5276
rfingers 7.12502
rthumb -18.8462 -9.57938
lclavicle 2.54444e-014 1.43125e-014
lhumerus -28.2559 -49.1319 92.4887
lradius 104.232
lwrist -13.3841
lhand -43.1575 10.1795
lfingers 7.12502
lthumb -16.01 39.538
rfemur -92.6741 -56.4427 40.1905
rtibia 136.835
rfoot -27.3927 13.4736
rtoes -12.6682
lfemur -100.181 14.7573 -24.739
ltibia 126.13
lfoot -27.7105 -11.3503
ltoes -10.332
